<svg width="512" height="512" viewBox="0 0 512 512" fill="none" xmlns="http://www.w3.org/2000/svg">
<rect width="512" height="512" rx="64" fill="#6366F1"/>
<path d="M43 213C43 210.348 44.0533 207.804 45.9287 205.929C47.8041 204.053 50.3478 203 53 203L429.889 203C431.573 203 433.23 203.425 434.706 204.236L473.817 225.736C477.014 227.494 479 230.852 479 234.5C479 238.148 477.014 241.506 473.817 243.264L434.706 264.764C433.23 265.575 431.573 266 429.889 266L53 266C47.4772 266 43 261.523 43 256L43 213Z" stroke="white" stroke-width="20" stroke-linejoin="round"/>
<path d="M256 128C326.692 128 384 177.696 384 239C384 278.269 360.485 312.775 325 332.507V384H188V333.056C151.958 313.419 128 278.637 128 239C128 177.696 185.308 128 256 128Z" fill="white"/>
<path d="M325 332.507L320.14 323.767C316.967 325.531 315 328.877 315 332.507H325ZM325 384V394C330.523 394 335 389.523 335 384H325ZM188 384H178C178 389.523 182.477 394 188 394V384ZM188 333.056H198C198 329.395 195.999 326.026 192.784 324.274L188 333.056ZM256 128V138C322.555 138 374 184.51 374 239H384H394C394 170.883 330.83 118 256 118V128ZM384 239H374C374 274.028 353.024 305.481 320.14 323.767L325 332.507L329.86 341.246C367.945 320.068 394 282.51 394 239H384ZM325 332.507H315V384H325H335V332.507H325ZM325 384V374H188V384V394H325V384ZM188 384H198V333.056H188H178V384H188ZM188 333.056L192.784 324.274C159.371 306.07 138 274.353 138 239H128H118C118 282.92 144.545 320.768 183.216 341.837L188 333.056ZM128 239H138C138 184.51 189.445 138 256 138V128V118C181.17 118 118 170.883 118 239H128Z" fill="white"/>
<circle cx="314.5" cy="229.5" r="37.5" fill="#6366F1"/>
<circle cx="197.5" cy="229.5" r="37.5" fill="#6366F1"/>
<path d="M224 395V352" stroke="#6366F1" stroke-width="20" stroke-linecap="round" stroke-linejoin="round"/>
<path d="M256 395V352" stroke="#6366F1" stroke-width="20" stroke-linecap="round" stroke-linejoin="round"/>
<path d="M288 395V352" stroke="#6366F1" stroke-width="20" stroke-linecap="round" stroke-linejoin="round"/>
<path d="M278 288H235L256.5 256L278 288Z" fill="#6366F1"/>
</svg>
